<svg width="36" height="36" viewBox="0 0 36 36" fill="none" xmlns="http://www.w3.org/2000/svg">
<path d="M18.8473 9.59766H17.1563C17.0016 9.59766 16.875 9.72422 16.875 9.87891V19.5574C16.875 19.6488 16.9172 19.7332 16.991 19.7859L22.8023 24.0293C22.9289 24.1207 23.1047 24.0961 23.1961 23.9695L24.2016 22.5984C24.2965 22.4684 24.2684 22.2926 24.1418 22.2047L19.1285 18.5801V9.87891C19.1285 9.72422 19.002 9.59766 18.8473 9.59766ZM26.5746 12.2414L32.0871 13.5879C32.2629 13.6301 32.4352 13.4965 32.4352 13.3172L32.4633 7.63946C32.4633 7.40391 32.1926 7.27032 32.0098 7.41797L26.4691 11.7457C26.4273 11.7781 26.3954 11.8217 26.3772 11.8714C26.3589 11.9211 26.3551 11.9749 26.3661 12.0267C26.3772 12.0785 26.4026 12.1261 26.4394 12.1641C26.4763 12.2021 26.5232 12.2289 26.5746 12.2414ZM32.4703 22.827L30.477 22.1414C30.4075 22.1176 30.3314 22.1219 30.265 22.1534C30.1987 22.185 30.1473 22.2412 30.1219 22.3102C30.0551 22.4895 29.9848 22.6652 29.9109 22.841C29.2852 24.3211 28.3887 25.6535 27.2426 26.7961C26.1092 27.933 24.766 28.8392 23.2875 29.4645C21.7558 30.112 20.1094 30.4444 18.4465 30.4418C16.766 30.4418 15.1383 30.1148 13.6055 29.4645C12.1269 28.8392 10.7838 27.933 9.65039 26.7961C8.50782 25.6535 7.61133 24.3211 6.98203 22.841C6.33803 21.3085 6.00808 19.6623 6.01172 18C6.01172 16.3195 6.33867 14.6883 6.98907 13.1555C7.61485 11.6754 8.51133 10.343 9.65743 9.2004C10.7908 8.06351 12.134 7.15731 13.6125 6.53204C15.1383 5.88164 16.7695 5.55469 18.45 5.55469C20.1305 5.55469 21.7582 5.88164 23.291 6.53204C24.7696 7.15731 26.1127 8.06351 27.2461 9.2004C27.6047 9.5625 27.9422 9.93868 28.2516 10.3359L30.3539 8.69063C27.5871 5.15391 23.2805 2.8793 18.443 2.88282C10.0195 2.88633 3.25547 9.72774 3.33985 18.1547C3.42422 26.434 10.1566 33.1172 18.45 33.1172C24.9715 33.1172 30.5262 28.9828 32.6426 23.1926C32.6953 23.0449 32.618 22.8797 32.4703 22.827Z" fill="white"/>
</svg>
