<svg width="36" height="36" viewBox="0 0 36 36" fill="none" xmlns="http://www.w3.org/2000/svg">
<path d="M32.139 16.6425L6.63901 4.6425C6.38224 4.52167 6.09645 4.47617 5.81485 4.51127C5.53325 4.54636 5.26738 4.66062 5.04811 4.84078C4.82885 5.02093 4.66519 5.25959 4.57613 5.52903C4.48708 5.79848 4.47629 6.08766 4.54501 6.363L6.36301 13.6365L18 18L6.36301 22.3635L4.54501 29.637C4.47499 29.9125 4.48489 30.2023 4.57353 30.4724C4.66217 30.7426 4.8259 30.9819 5.04556 31.1623C5.26521 31.3428 5.53172 31.457 5.81391 31.4916C6.09609 31.5261 6.38229 31.4796 6.63901 31.3575L32.139 19.3575C32.3967 19.2364 32.6146 19.0444 32.7672 18.804C32.9198 18.5636 33.0009 18.2847 33.0009 18C33.0009 17.7153 32.9198 17.4364 32.7672 17.196C32.6146 16.9556 32.3967 16.7636 32.139 16.6425Z" fill="white"/>
</svg>
